<svg xmlns="http://www.w3.org/2000/svg" viewBox="0 0 760 180" role="img" aria-labelledby="abltTitle">
  <title id="abltTitle">AgilBank</title>
  <defs>
    <linearGradient id="abltg_icon" x1="0" y1="0" x2="1" y2="1">
      <stop offset="0%" stop-color="#00C8FF"/>
      <stop offset="45%" stop-color="#008CFF"/>
      <stop offset="100%" stop-color="#005BFF"/>
    </linearGradient>
  </defs>
  <g transform="translate(18 25)">
    <path d="M70 0 C31.3 0 0 31.3 0 70 C0 108.7 31.3 140 70 140 H125 V98 H72 C56.5 98 44 85.5 44 70 C44 54.5 56.5 42 72 42 C87.5 42 100 54.5 100 70 V140 H145 V70 C145 31.3 113.7 0 70 0Z" fill="url(#abltg_icon)"/>
    <path d="M72 42 C56.5 42 44 54.5 44 70 C44 85.5 56.5 98 72 98 H100 V70 C100 54.5 87.5 42 72 42Z" fill="#FFFFFF"/>
  </g>
  <text x="190" y="120" fill="#07152E" font-family="Arial, Helvetica, sans-serif" font-size="82" font-weight="700" letter-spacing="-3">agil<tspan font-weight="500">Bank</tspan></text>
</svg>
